<?xml version="1.0" encoding="UTF-8" standalone="no"?>
<!DOCTYPE svg PUBLIC "-//W3C//DTD SVG 1.1//EN" "http://www.w3.org/Graphics/SVG/1.1/DTD/svg11.dtd">
<svg width="100%" height="100%" viewBox="0 0 195 195" version="1.1" xmlns="http://www.w3.org/2000/svg" xmlns:xlink="http://www.w3.org/1999/xlink" xml:space="preserve" xmlns:serif="http://www.serif.com/" style="fill-rule:evenodd;clip-rule:evenodd;stroke-linecap:round;stroke-linejoin:round;stroke-miterlimit:1.5;">
    <g transform="matrix(0.18,0,0,0.18,0,0)">
        <g transform="matrix(1,0,0,1,-1.43156,8.44347)">
            <path d="M241,272L842,272L842,810C842,810 824.392,896.205 540,901C312.742,904.832 240,810 240,810L241,272Z" style="fill:rgb(253,137,55);"/>
            <g transform="matrix(1.01874,0,0,1.16757,-5.53492,-65.6757)">
                <ellipse cx="535.5" cy="287.5" rx="293.5" ry="92.5" style="fill:rgb(253,137,55);stroke:black;stroke-width:12.68px;"/>
            </g>
            <g transform="matrix(0.985243,0,0,1.00184,3.54029,-1.49632)">
                <path d="M241,270L239.804,805.839C303.285,923.338 791.366,940.304 852.091,808.011L848,277" style="fill:none;stroke:black;stroke-width:13.98px;"/>
            </g>
            <g transform="matrix(0.995033,0,0,1,1.19473,0)">
                <path d="M240.536,475.034C311.393,588.381 765.105,584.164 844.529,476.508" style="fill:none;stroke:black;stroke-width:13.92px;"/>
            </g>
            <g transform="matrix(0.990066,0,0,1,3.38946,168)">
                <path d="M240.536,475.034C311.393,588.381 765.105,584.164 844.529,476.508" style="fill:none;stroke:black;stroke-width:13.96px;"/>
            </g>
        </g>
        <g transform="matrix(1.40728,0,0,1.40728,-701.686,-206.085)">
            <path d="M820.08,517.46L762.656,459.46L792.502,429.91L844.984,482.919C849.621,481.037 854.691,480 860,480C882.077,480 900,497.923 900,520C900,525.451 898.907,530.648 896.929,535.385L948.402,587.374C952.648,585.838 957.227,585 962,585C984.077,585 1002,602.923 1002,625C1002,647.077 984.077,665 962,665C939.923,665 922,647.077 922,625C922,623.527 922.08,622.073 922.235,620.641L880,577.982L880,689.957C891.399,697.008 899,709.623 899,724C899,746.077 881.077,764 859,764C836.923,764 819,746.077 819,724C819,707.611 828.878,693.511 843,687.333L843,556.213C829.414,549.818 820,535.999 820,520C820,519.147 820.027,518.3 820.08,517.46Z" style="fill:rgb(0,190,255);stroke:black;stroke-width:9.87px;"/>
        </g>
    </g>
</svg>
